<?xml version="1.0" encoding="utf-8"?>
<!-- Generator: Adobe Illustrator 16.0.4, SVG Export Plug-In . SVG Version: 6.00 Build 0)  -->
<!DOCTYPE svg PUBLIC "-//W3C//DTD SVG 1.1//EN" "http://www.w3.org/Graphics/SVG/1.1/DTD/svg11.dtd">
<svg version="1.1" id="Layer_1" xmlns="http://www.w3.org/2000/svg" xmlns:xlink="http://www.w3.org/1999/xlink" x="0px" y="0px"
	 width="512px" height="448.5px" viewBox="0 0 512 448.5" enable-background="new 0 0 512 448.5" xml:space="preserve">
<path fill="#FFFFFF" d="M256,182.24c20.83,0,38.641,7.396,53.432,22.187s22.187,32.602,22.187,53.432s-7.396,38.641-22.187,53.432
	S276.83,333.477,256,333.477s-38.641-7.396-53.432-22.187s-22.187-32.602-22.187-53.432s7.396-38.641,22.187-53.432
	S235.17,182.24,256,182.24 M440.845,73.013c18.555,0,34.396,6.564,47.524,19.692c13.128,13.129,19.692,28.97,19.692,47.524v235.258
	c0,18.554-6.564,34.396-19.692,47.523c-13.128,13.129-28.97,19.692-47.524,19.692H71.155c-18.554,0-34.396-6.563-47.524-19.692
	c-13.128-13.128-19.692-28.97-19.692-47.523V140.229c0-18.555,6.564-34.396,19.692-47.524c13.128-13.128,28.97-19.692,47.524-19.692
	h58.814l13.391-35.708c3.326-8.577,9.409-15.973,18.249-22.187c8.839-6.215,17.898-9.321,27.175-9.321h134.433
	c9.277,0,18.335,3.106,27.175,9.321c8.84,6.214,14.923,13.609,18.248,22.187l13.392,35.708H440.845 M256,375.487
	c32.383,0,60.083-11.51,83.102-34.527c23.019-23.019,34.527-50.719,34.527-83.102s-11.509-60.084-34.527-83.102
	c-23.019-23.019-50.719-34.527-83.102-34.527s-60.083,11.509-83.102,34.527c-23.018,23.018-34.527,50.719-34.527,83.102
	s11.509,60.083,34.527,83.102C195.917,363.978,223.617,375.487,256,375.487"/>
</svg>
