<?xml version="1.0" encoding="utf-8"?>
<!-- Generator: Adobe Illustrator 16.0.4, SVG Export Plug-In . SVG Version: 6.00 Build 0)  -->
<!DOCTYPE svg PUBLIC "-//W3C//DTD SVG 1.0//EN" "http://www.w3.org/TR/2001/REC-SVG-20010904/DTD/svg10.dtd">
<svg version="1.0" id="Layer_1" xmlns="http://www.w3.org/2000/svg" xmlns:xlink="http://www.w3.org/1999/xlink" x="0px" y="0px"
	 width="448.518px" height="512px" viewBox="0 0 448.518 512" enable-background="new 0 0 448.518 512" xml:space="preserve">
<g>
	<defs>
		<rect id="SVGID_1_" x="2.146" y="3.534" width="444.227" height="504.932"/>
	</defs>
	<clipPath id="SVGID_2_">
		<use xlink:href="#SVGID_1_"  overflow="visible"/>
	</clipPath>
	<g clip-path="url(#SVGID_2_)">
		<defs>
			<rect id="SVGID_3_" x="4.343" y="3.754" width="441.038" height="503.754"/>
		</defs>
		<clipPath id="SVGID_4_">
			<use xlink:href="#SVGID_3_"  overflow="visible"/>
		</clipPath>
		<path clip-path="url(#SVGID_4_)" fill="#FFFFFF" d="M103.85,100.147c4.565,0,8.265,3.708,8.265,8.284s-3.7,8.29-8.265,8.29
			c-4.564,0-8.264-3.714-8.264-8.29S99.286,100.147,103.85,100.147"/>
		<path clip-path="url(#SVGID_4_)" fill="#FFFFFF" d="M177.843,83.771c4.564,0,8.264,3.708,8.264,8.283
			c0,4.576-3.7,8.284-8.264,8.284c-4.562,0-8.262-3.708-8.262-8.284C169.581,87.479,173.281,83.771,177.843,83.771"/>
		<path clip-path="url(#SVGID_4_)" fill="#FFFFFF" d="M399.536,38.604c10.442,16.18,17.352,33.857,2.88,52.989
			c-13.034-4.136-17.447-19.357-20.175-36.613l-24.987,45.287c15.667-7.175,29.867-14.709,40.361-1.472
			c-15.926,22.113-60.118,47.856-73.424,10.865c1.392-2.068,2.468-4.48,3.094-7.14c1.308-5.579,0.383-11.085-2.164-15.171
			c11.338-29.558,26.746-19.634,35.469-5.512c0.519-15.723,2.445-37.446-30.842-16.771c7.219-17.307,4.581-46.441,1.595-47.151
			c-2.998-0.704-18.327,24.215-19.555,42.937c-20.614-33.379-28.561-13.075-35.075,1.233c14.089-8.746,32.325-10.747,29.338,20.772
			c-4.091,2.524-7.394,7.033-8.701,12.617c-0.619,2.638-0.743,5.252-0.428,7.71c-37.679,12.955-47.292,3.319-66.515-35.216V51.114
			c1.922-0.49,1.922-1.454,2.406-3.376c18.372-0.101,24.931,11.136,32.19,22.66V19.33c-7.151,13.108-15.408,22.485-32.19,21.669
			c-0.484-1.934-0.484-2.897-2.406-3.376c2.61-17.582,9.789-25.28,26.91-33.705L224.932,3.9h-0.29l-32.384,0.018
			c17.12,8.425,24.3,16.123,26.906,33.705c-1.922,0.479-1.922,1.442-2.403,3.376c-16.785,0.816-25.041-8.561-32.189-21.669v51.068
			c7.253-11.524,13.812-22.761,32.189-22.66c0.481,1.922,0.481,2.886,2.403,3.376V67.97c-19.22,38.535-28.828,48.171-66.515,35.216
			c0.318-2.458,0.197-5.072-0.423-7.71c-1.308-5.584-4.615-10.093-8.709-12.617c-2.984-31.52,15.254-29.519,29.338-20.772
			c-6.512-14.309-14.452-34.612-35.072-1.233c-1.231-18.722-16.557-43.641-19.552-42.937c-2.995,0.71-5.627,29.839,1.592,47.151
			c-33.291-20.676-31.367,1.048-30.843,16.771c8.727-14.122,24.134-24.046,35.466,5.512c-2.544,4.086-3.471,9.592-2.161,15.171
			c0.621,2.659,1.7,5.071,3.094,7.14c-13.308,36.996-57.492,11.248-73.421-10.859c10.493-13.237,24.689-5.703,40.361,1.466
			L67.336,54.985c-2.736,17.25-7.146,32.472-20.18,36.607c-14.475-19.132-7.566-36.81,2.882-52.989L16.406,57.871L80.79,168.674
			c41.933-27.422,93.105-40.344,143.852-39.521l0,0c0.048,0,0.099,0,0.144,0c0.05,0,0.098,0,0.144,0l0,0
			c50.747-0.816,101.927,12.1,143.854,39.521l64.379-110.803L399.536,38.604"/>
		<path clip-path="url(#SVGID_4_)" fill="#FFFFFF" d="M345.725,100.147c4.559,0,8.261,3.708,8.261,8.284s-3.702,8.29-8.261,8.29
			c-4.565,0-8.268-3.714-8.268-8.29S341.159,100.147,345.725,100.147"/>
		<path clip-path="url(#SVGID_4_)" fill="#FFFFFF" d="M271.731,83.771c4.564,0,8.262,3.708,8.262,8.283
			c0,4.576-3.697,8.284-8.262,8.284s-8.267-3.708-8.267-8.284C263.465,87.479,267.167,83.771,271.731,83.771"/>
		<path clip-path="url(#SVGID_4_)" fill="#FFFFFF" d="M224.93,160.965H73.101v338.181h16.333c0,0,24.024-63.591,24.024-68.409
			c0-1.336-1.922-1.921-7.69-1.921v-33.729h33.635v35.649h-7.69l24.988,64.554l24.981-64.554h-7.686v-35.649h33.632v35.649h-7.687
			l24.697,63.815v0.738l0.144-0.372l0.144,0.372v-0.738l24.691-63.81h-7.687v-35.649h33.632v35.649h-7.687l24.987,64.548
			l24.981-64.554h-7.687v-35.649h33.632v33.729c-5.765,0-7.682,0.58-7.682,1.921c0,4.818,24.019,68.409,24.019,68.409h16.332
			V160.965H224.93 M89.438,386.421c-4.776,0-8.65-3.884-8.65-8.674c0-4.784,3.875-8.673,8.65-8.673c4.773,0,8.647,3.889,8.647,8.673
			C98.085,382.537,94.211,386.421,89.438,386.421z M89.438,318.012c-4.776,0-8.65-3.883-8.65-8.672c0-4.785,3.875-8.668,8.65-8.668
			c4.773,0,8.647,3.883,8.647,8.668C98.085,314.129,94.211,318.012,89.438,318.012z M89.438,251.531c-4.776,0-8.65-3.883-8.65-8.673
			c0-4.785,3.875-8.673,8.65-8.673c4.773,0,8.647,3.888,8.647,8.673C98.085,247.648,94.211,251.531,89.438,251.531z M89.438,186.978
			c-4.776,0-8.65-3.883-8.65-8.673c0-4.784,3.875-8.667,8.65-8.667c4.773,0,8.647,3.883,8.647,8.667
			C98.085,183.095,94.211,186.978,89.438,186.978z M105.772,326.685h33.632v33.723h-33.632V326.685z M105.772,261.168h33.632v30.831
			h-33.632V261.168z M105.772,195.65h33.632v30.831h-33.632V195.65z M156.702,386.421c-4.773,0-8.65-3.884-8.65-8.674
			c0-4.784,3.877-8.673,8.65-8.673c4.773,0,8.647,3.889,8.647,8.673C165.35,382.537,161.478,386.421,156.702,386.421z
			 M156.702,318.012c-4.773,0-8.65-3.883-8.65-8.672c0-4.785,3.877-8.668,8.65-8.668c4.773,0,8.647,3.883,8.647,8.668
			C165.35,314.129,161.478,318.012,156.702,318.012z M156.702,251.531c-4.773,0-8.65-3.883-8.65-8.673
			c0-4.785,3.877-8.673,8.65-8.673c4.773,0,8.647,3.888,8.647,8.673C165.35,247.648,161.478,251.531,156.702,251.531z
			 M156.702,186.978c-4.773,0-8.65-3.883-8.65-8.673c0-4.784,3.877-8.667,8.65-8.667c4.773,0,8.647,3.883,8.647,8.667
			C165.35,183.095,161.478,186.978,156.702,186.978z M174,326.685h33.635v33.723H174V326.685z M174,261.168h33.635v30.831H174
			V261.168z M174,195.65h33.635v30.831H174V195.65z M224.786,386.415c-4.706-0.079-8.504-3.929-8.504-8.668
			c0-4.733,3.796-8.582,8.504-8.661c4.705,0.079,8.5,3.928,8.5,8.661C233.287,382.486,229.491,386.336,224.786,386.415z
			 M224.786,318.006c-4.706-0.079-8.504-3.927-8.504-8.666c0-4.734,3.796-8.583,8.504-8.662c4.705,0.079,8.5,3.928,8.5,8.662
			C233.287,314.079,229.491,317.927,224.786,318.006z M224.786,251.525c-4.706-0.079-8.504-3.928-8.504-8.667
			c0-4.733,3.796-8.583,8.504-8.661c4.705,0.078,8.5,3.928,8.5,8.661C233.287,247.598,229.491,251.446,224.786,251.525z
			 M224.786,186.973c-4.706-0.079-8.504-3.929-8.504-8.668s3.796-8.583,8.504-8.662c4.705,0.079,8.5,3.929,8.5,8.662
			C233.287,183.044,229.491,186.894,224.786,186.973z M241.943,326.685h33.631v33.723h-33.631V326.685z M241.943,261.168h33.631
			v30.831h-33.631V261.168z M241.943,195.65h33.631v30.831h-33.631V195.65z M292.869,386.421c-4.772,0-8.65-3.884-8.65-8.674
			c0-4.784,3.878-8.673,8.65-8.673c4.774,0,8.65,3.889,8.65,8.673C301.52,382.537,297.644,386.421,292.869,386.421z
			 M292.869,318.012c-4.772,0-8.65-3.883-8.65-8.672c0-4.785,3.878-8.668,8.65-8.668c4.774,0,8.65,3.883,8.65,8.668
			C301.52,314.129,297.644,318.012,292.869,318.012z M292.869,251.531c-4.772,0-8.65-3.883-8.65-8.673
			c0-4.785,3.878-8.673,8.65-8.673c4.774,0,8.65,3.888,8.65,8.673C301.52,247.648,297.644,251.531,292.869,251.531z
			 M292.869,186.978c-4.772,0-8.65-3.883-8.65-8.673c0-4.784,3.878-8.667,8.65-8.667c4.774,0,8.65,3.883,8.65,8.667
			C301.52,183.095,297.644,186.978,292.869,186.978z M310.164,326.685h33.633v33.723h-33.633V326.685z M310.164,261.168h33.633
			v30.831h-33.633V261.168z M310.164,195.65h33.633v30.831h-33.633V195.65z M360.134,386.421c-4.773,0-8.65-3.884-8.65-8.674
			c0-4.784,3.877-8.673,8.65-8.673s8.65,3.889,8.65,8.673C368.784,382.537,364.907,386.421,360.134,386.421z M360.134,318.012
			c-4.773,0-8.65-3.883-8.65-8.672c0-4.785,3.877-8.668,8.65-8.668s8.65,3.883,8.65,8.668
			C368.784,314.129,364.907,318.012,360.134,318.012z M360.134,251.531c-4.773,0-8.65-3.883-8.65-8.673
			c0-4.785,3.877-8.673,8.65-8.673s8.65,3.888,8.65,8.673C368.784,247.648,364.907,251.531,360.134,251.531z M360.134,186.978
			c-4.773,0-8.65-3.883-8.65-8.673c0-4.784,3.877-8.667,8.65-8.667s8.65,3.883,8.65,8.667
			C368.784,183.095,364.907,186.978,360.134,186.978z"/>
		<path clip-path="url(#SVGID_4_)" fill="#FFFFFF" d="M418.128,204.014c-14.945,0-27.096-12.189-27.096-27.174h7.112
			c0,11.051,8.961,20.045,19.983,20.045l0.146-0.006v3.567l0.067,3.562L418.128,204.014"/>
		<path clip-path="url(#SVGID_4_)" fill="#FFFFFF" d="M418.297,204.008l-0.045-7.129c10.955-0.067,19.858-9.056,19.858-20.039
			c0-11.051-8.96-20.039-19.982-20.039s-19.995,8.988-19.995,20.039h-7.105c0-14.979,12.155-27.169,27.101-27.169
			c14.938,0,27.095,12.19,27.095,27.169C445.223,191.729,433.14,203.918,418.297,204.008"/>
		<rect x="375.986" y="173.278" clip-path="url(#SVGID_4_)" fill="#FFFFFF" width="32.2" height="7.129"/>
		<path clip-path="url(#SVGID_4_)" fill="#FFFFFF" d="M418.274,280.125h-13.649c-5.247,0-9.512-4.276-9.512-9.54v-39.116
			c0-5.257,4.265-9.535,9.512-9.535h13.649v7.129h-13.649c-1.324,0-2.4,1.077-2.4,2.406v39.116c0,1.329,1.076,2.412,2.4,2.412
			h13.649V280.125"/>
		<path clip-path="url(#SVGID_4_)" fill="#FFFFFF" d="M432.114,280.125h-13.84v-7.128h13.84c1.319,0,2.401-1.083,2.401-2.412
			v-39.116c0-1.329-1.082-2.411-2.401-2.411h-13.84v-7.129h13.84c5.241,0,9.508,4.283,9.508,9.54v39.116
			C441.622,275.849,437.355,280.125,432.114,280.125"/>
		<rect x="414.718" y="193.222" clip-path="url(#SVGID_4_)" fill="#FFFFFF" width="7.107" height="39.504"/>
		<path clip-path="url(#SVGID_4_)" fill="#FFFFFF" d="M418.274,358.553h-13.649c-5.247,0-9.512-4.277-9.512-9.534v-39.121
			c0-5.258,4.265-9.536,9.512-9.536h13.649v7.129h-13.649c-1.324,0-2.4,1.083-2.4,2.413v39.115c0,1.33,1.076,2.405,2.4,2.405h13.649
			V358.553"/>
		<path clip-path="url(#SVGID_4_)" fill="#FFFFFF" d="M432.114,358.553h-13.84v-7.129h13.84c1.319,0,2.401-1.075,2.401-2.411
			v-39.115c0-1.33-1.082-2.407-2.401-2.407h-13.84v-7.134h13.84c5.241,0,9.508,4.277,9.508,9.541v39.115
			C441.622,354.275,437.355,358.553,432.114,358.553"/>
		<rect x="414.718" y="271.649" clip-path="url(#SVGID_4_)" fill="#FFFFFF" width="7.107" height="39.499"/>
		<path clip-path="url(#SVGID_4_)" fill="#FFFFFF" d="M418.274,436.496h-13.649c-5.247,0-9.512-4.277-9.512-9.535V387.84
			c0-5.251,4.265-9.534,9.512-9.534h13.649v7.129h-13.649c-1.324,0-2.4,1.081-2.4,2.411v39.115c0,1.33,1.076,2.412,2.4,2.412h13.649
			V436.496"/>
		<path clip-path="url(#SVGID_4_)" fill="#FFFFFF" d="M432.114,436.496h-13.84v-7.123h13.84c1.319,0,2.401-1.082,2.401-2.412V387.84
			c0-1.33-1.082-2.405-2.401-2.405h-13.84V378.3h13.84c5.241,0,9.508,4.283,9.508,9.54v39.116
			C441.622,432.219,437.355,436.496,432.114,436.496"/>
		<rect x="414.718" y="349.598" clip-path="url(#SVGID_4_)" fill="#FFFFFF" width="7.107" height="39.499"/>
		<path clip-path="url(#SVGID_4_)" fill="#FFFFFF" d="M418.128,507.508c-14.945,0-27.096-12.189-27.096-27.168
			c0-14.979,12.15-27.168,27.096-27.168h0.203c14.809,0.089,26.892,12.279,26.892,27.168
			C445.223,495.318,433.072,507.508,418.128,507.508 M418.066,460.295c-10.961,0-19.928,8.994-19.928,20.045
			s8.967,20.045,19.989,20.045s19.982-8.994,19.982-20.045c0-10.983-8.903-19.972-19.858-20.04L418.066,460.295z"/>
		<rect x="414.718" y="426.387" clip-path="url(#SVGID_4_)" fill="#FFFFFF" width="7.107" height="6.548"/>
		<rect x="414.718" y="432.935" clip-path="url(#SVGID_4_)" fill="#FFFFFF" width="7.107" height="32.95"/>
		<path clip-path="url(#SVGID_4_)" fill="#FFFFFF" d="M31.444,204.014l-0.208-0.006c-14.81-0.09-26.892-12.273-26.892-27.168
			c0-14.979,12.155-27.169,27.101-27.169c14.939,0,27.098,12.19,27.098,27.169C58.542,191.824,46.386,204.014,31.444,204.014
			 M31.444,156.801c-11.023,0-19.989,8.988-19.989,20.039c0,10.983,8.91,19.972,19.862,20.039h0.163
			c11.003-0.022,19.949-8.999,19.949-20.039C51.433,165.789,42.464,156.801,31.444,156.801z"/>
		<rect x="41.388" y="173.278" clip-path="url(#SVGID_4_)" fill="#FFFFFF" width="32.192" height="7.129"/>
		<path clip-path="url(#SVGID_4_)" fill="#FFFFFF" d="M44.946,280.125H17.46c-5.244,0-9.513-4.276-9.513-9.54v-39.116
			c0-5.257,4.269-9.535,9.513-9.535h27.486c5.244,0,9.513,4.278,9.513,9.535v39.116C54.459,275.849,50.19,280.125,44.946,280.125
			 M17.46,229.062c-1.325,0-2.401,1.077-2.401,2.406v39.116c0,1.329,1.076,2.412,2.401,2.412h27.486
			c1.324,0,2.401-1.083,2.401-2.412v-39.116c0-1.329-1.077-2.406-2.401-2.406H17.46z"/>
		<rect x="27.741" y="193.222" clip-path="url(#SVGID_4_)" fill="#FFFFFF" width="7.112" height="39.504"/>
		<path clip-path="url(#SVGID_4_)" fill="#FFFFFF" d="M44.946,358.553H17.46c-5.244,0-9.513-4.277-9.513-9.534v-39.121
			c0-5.258,4.269-9.536,9.513-9.536h27.486c5.244,0,9.513,4.278,9.513,9.536v39.121C54.459,354.275,50.19,358.553,44.946,358.553
			 M17.46,307.49c-1.325,0-2.401,1.077-2.401,2.407v39.121c0,1.33,1.076,2.405,2.401,2.405h27.486c1.324,0,2.401-1.075,2.401-2.405
			v-39.121c0-1.33-1.077-2.407-2.401-2.407H17.46z"/>
		<rect x="27.741" y="271.649" clip-path="url(#SVGID_4_)" fill="#FFFFFF" width="7.112" height="39.499"/>
		<path clip-path="url(#SVGID_4_)" fill="#FFFFFF" d="M44.946,436.496H31.297v-7.123h13.649c1.324,0,2.401-1.082,2.401-2.412V387.84
			c0-1.33-1.077-2.405-2.401-2.405H31.297V378.3h13.649c5.244,0,9.513,4.283,9.513,9.54v39.116
			C54.459,432.219,50.19,436.496,44.946,436.496"/>
		<path clip-path="url(#SVGID_4_)" fill="#FFFFFF" d="M31.297,436.496H17.46c-5.244,0-9.513-4.277-9.513-9.535V387.84
			c0-5.251,4.269-9.534,9.513-9.534h13.837v7.129H17.46c-1.325,0-2.401,1.081-2.401,2.411v39.115c0,1.33,1.076,2.412,2.401,2.412
			h13.837V436.496"/>
		<rect x="27.741" y="349.598" clip-path="url(#SVGID_4_)" fill="#FFFFFF" width="7.112" height="39.499"/>
		<path clip-path="url(#SVGID_4_)" fill="#FFFFFF" d="M31.444,507.508c-14.945,0-27.101-12.189-27.101-27.168
			c0-14.889,12.083-27.079,26.932-27.168h0.169c14.939,0,27.098,12.188,27.098,27.168C58.542,495.318,46.386,507.508,31.444,507.508
			 M31.444,460.295l-0.146,0.005c-10.93,0.068-19.842,9.057-19.842,20.04c0,11.051,8.966,20.045,19.989,20.045
			c11.02,0,19.989-8.994,19.989-20.045S42.464,460.295,31.444,460.295z"/>
		<rect x="27.741" y="426.387" clip-path="url(#SVGID_4_)" fill="#FFFFFF" width="7.112" height="39.498"/>
	</g>
</g>
</svg>
